<mxfile host="app.diagrams.net" scale="0.8" border="0" agent="Mozilla/5.0 (Macintosh; Intel Mac OS X 10_15_7) AppleWebKit/537.36 (KHTML, like Gecko) Chrome/128.0.0.0 Safari/537.36" version="24.7.14">
  <diagram id="2imF5TS-2AsIUvXl1Hec" name="Page-1">
    <mxGraphModel dx="819" dy="593" grid="1" gridSize="10" guides="1" tooltips="1" connect="1" arrows="1" fold="1" page="1" pageScale="1" pageWidth="827" pageHeight="1169" math="0" shadow="0">
      <root>
        <mxCell id="0" />
        <mxCell id="1" parent="0" />
        <mxCell id="lwHhPLdUFV76qlDTj5FU-29" style="edgeStyle=orthogonalEdgeStyle;rounded=0;orthogonalLoop=1;jettySize=auto;html=1;exitX=0.5;exitY=0;exitDx=0;exitDy=0;entryX=0.5;entryY=1;entryDx=0;entryDy=0;endSize=15;endArrow=blockThin;endFill=0;" edge="1" parent="1" source="lwHhPLdUFV76qlDTj5FU-1" target="lwHhPLdUFV76qlDTj5FU-4">
          <mxGeometry relative="1" as="geometry" />
        </mxCell>
        <mxCell id="lwHhPLdUFV76qlDTj5FU-1" value="&lt;div style=&quot;line-height: 14.4px;&quot;&gt;&lt;span style=&quot;background-color: initial;&quot;&gt;«&lt;/span&gt;&lt;span style=&quot;background-color: initial;&quot;&gt;BusinessComponent&lt;/span&gt;&lt;span style=&quot;background-color: initial;&quot;&gt;»&lt;/span&gt;&lt;br&gt;&lt;/div&gt;&lt;b&gt;&lt;div style=&quot;line-height: 14.4px;&quot;&gt;TLSBasicAuthenticationProfileType&lt;/div&gt;&lt;/b&gt;" style="swimlane;fontStyle=0;align=center;verticalAlign=top;childLayout=stackLayout;horizontal=1;startSize=160;horizontalStack=0;resizeParent=1;resizeParentMax=0;resizeLast=0;collapsible=0;marginBottom=0;html=1;fillColor=#e9fea7;shadow=1;fontSize=12;" vertex="1" parent="1">
          <mxGeometry x="20" y="520" width="260" height="90" as="geometry" />
        </mxCell>
        <mxCell id="lwHhPLdUFV76qlDTj5FU-2" value="&lt;div style=&quot;line-height: 14.4px;&quot;&gt;&lt;div style=&quot;text-align: right; line-height: 14.4px;&quot;&gt;&lt;span style=&quot;background-color: initial;&quot;&gt;&lt;i&gt;IdentifiedObject&lt;/i&gt;&lt;/span&gt;&lt;/div&gt;&lt;div style=&quot;line-height: 14.4px;&quot;&gt;&lt;span style=&quot;background-color: initial; text-align: right;&quot;&gt;&lt;br&gt;&lt;/span&gt;&lt;/div&gt;«&lt;span style=&quot;background-color: initial;&quot;&gt;BusinessComponent&lt;/span&gt;»&lt;br&gt;&lt;b&gt;SecurityProfileType&lt;/b&gt;&lt;/div&gt;" style="swimlane;fontStyle=0;align=center;verticalAlign=top;childLayout=stackLayout;horizontal=1;startSize=70;horizontalStack=0;resizeParent=1;resizeParentMax=0;resizeLast=0;collapsible=0;marginBottom=0;html=1;fillColor=#e9fea7;shadow=1;fontSize=12;" vertex="1" parent="1">
          <mxGeometry x="40" y="60" width="220" height="180" as="geometry" />
        </mxCell>
        <mxCell id="lwHhPLdUFV76qlDTj5FU-3" value="&lt;div&gt;&lt;span style=&quot;text-align: center; background-color: initial;&quot;&gt;&amp;nbsp; «Content»&lt;/span&gt;&lt;br&gt;&lt;/div&gt;&lt;div&gt;&lt;span style=&quot;text-align: center; background-color: initial;&quot;&gt;&lt;i&gt;::IdentifiedObject&lt;/i&gt;&lt;/span&gt;&lt;/div&gt;&lt;div&gt;+&amp;nbsp; &amp;nbsp; MRID: NumericIdentifierType [0..1]&lt;/div&gt;&lt;div&gt;+&amp;nbsp; &amp;nbsp; ObjectID: IdentifierType [0..*]&lt;br&gt;&lt;/div&gt;&lt;div&gt;+&amp;nbsp; &amp;nbsp; Name: NameType [0..1]&lt;br&gt;+&amp;nbsp; &amp;nbsp; AliasName: NameType [0..*]&lt;br&gt;&lt;/div&gt;&lt;div&gt;+&amp;nbsp; &amp;nbsp; Description: TextType [0..*]&lt;br&gt;&lt;/div&gt;" style="text;html=1;strokeColor=none;fillColor=#e9fea7;align=left;verticalAlign=top;spacingLeft=4;spacingRight=4;overflow=hidden;rotatable=0;points=[[0,0.5],[1,0.5]];portConstraint=eastwest;fontSize=12;" vertex="1" parent="lwHhPLdUFV76qlDTj5FU-2">
          <mxGeometry y="70" width="220" height="110" as="geometry" />
        </mxCell>
        <mxCell id="lwHhPLdUFV76qlDTj5FU-27" style="edgeStyle=orthogonalEdgeStyle;rounded=0;orthogonalLoop=1;jettySize=auto;html=1;entryX=0.5;entryY=1;entryDx=0;entryDy=0;endSize=15;endArrow=blockThin;endFill=0;" edge="1" parent="1" source="lwHhPLdUFV76qlDTj5FU-4" target="lwHhPLdUFV76qlDTj5FU-2">
          <mxGeometry relative="1" as="geometry" />
        </mxCell>
        <mxCell id="lwHhPLdUFV76qlDTj5FU-4" value="&lt;div style=&quot;line-height: 14.4px;&quot;&gt;&lt;div style=&quot;line-height: 14.4px;&quot;&gt;&lt;span style=&quot;background-color: initial;&quot;&gt;«&lt;/span&gt;&lt;span style=&quot;background-color: initial;&quot;&gt;BusinessComponent&lt;/span&gt;&lt;span style=&quot;background-color: initial;&quot;&gt;»&lt;/span&gt;&lt;br&gt;&lt;/div&gt;&lt;b&gt;BasicAuthenticationProfileType&lt;/b&gt;&lt;/div&gt;" style="swimlane;fontStyle=0;align=center;verticalAlign=top;childLayout=stackLayout;horizontal=1;startSize=40;horizontalStack=0;resizeParent=1;resizeParentMax=0;resizeLast=0;collapsible=0;marginBottom=0;html=1;fillColor=#e9fea7;shadow=1;fontSize=12;" vertex="1" parent="1">
          <mxGeometry x="20" y="300" width="260" height="100" as="geometry" />
        </mxCell>
        <mxCell id="lwHhPLdUFV76qlDTj5FU-5" value="&lt;div&gt;&lt;span style=&quot;text-align: center; background-color: initial;&quot;&gt;&amp;nbsp; «Content»&lt;/span&gt;&lt;br&gt;&lt;/div&gt;&lt;div&gt;&lt;span style=&quot;background-color: initial;&quot;&gt;+&amp;nbsp; &amp;nbsp; UserName: UserNameType [0..1]&lt;/span&gt;&lt;/div&gt;&lt;div&gt;+&amp;nbsp; &amp;nbsp; Password: PasswordType [0..1]&lt;span style=&quot;background-color: initial;&quot;&gt;&lt;br&gt;&lt;/span&gt;&lt;/div&gt;" style="text;html=1;strokeColor=none;fillColor=#e9fea7;align=left;verticalAlign=top;spacingLeft=4;spacingRight=4;overflow=hidden;rotatable=0;points=[[0,0.5],[1,0.5]];portConstraint=eastwest;fontSize=12;" vertex="1" parent="lwHhPLdUFV76qlDTj5FU-4">
          <mxGeometry y="40" width="260" height="60" as="geometry" />
        </mxCell>
        <mxCell id="lwHhPLdUFV76qlDTj5FU-28" style="edgeStyle=orthogonalEdgeStyle;rounded=1;orthogonalLoop=1;jettySize=auto;html=1;exitX=0.5;exitY=0;exitDx=0;exitDy=0;endArrow=none;endFill=0;curved=0;" edge="1" parent="1" source="lwHhPLdUFV76qlDTj5FU-6">
          <mxGeometry relative="1" as="geometry">
            <mxPoint x="150" y="260" as="targetPoint" />
            <Array as="points">
              <mxPoint x="470" y="280" />
              <mxPoint x="150" y="280" />
            </Array>
          </mxGeometry>
        </mxCell>
        <mxCell id="lwHhPLdUFV76qlDTj5FU-6" value="&lt;div style=&quot;line-height: 14.4px;&quot;&gt;&lt;div style=&quot;line-height: 14.4px;&quot;&gt;&lt;span style=&quot;background-color: initial;&quot;&gt;«&lt;/span&gt;&lt;span style=&quot;background-color: initial;&quot;&gt;BusinessComponent&lt;/span&gt;&lt;span style=&quot;background-color: initial;&quot;&gt;»&lt;/span&gt;&lt;br&gt;&lt;/div&gt;&lt;b&gt;TLSDigestProfileType&lt;/b&gt;&lt;/div&gt;" style="swimlane;fontStyle=0;align=center;verticalAlign=top;childLayout=stackLayout;horizontal=1;startSize=40;horizontalStack=0;resizeParent=1;resizeParentMax=0;resizeLast=0;collapsible=0;marginBottom=0;html=1;fillColor=#e9fea7;shadow=1;fontSize=12;" vertex="1" parent="1">
          <mxGeometry x="300" y="300" width="340" height="100" as="geometry" />
        </mxCell>
        <mxCell id="lwHhPLdUFV76qlDTj5FU-7" value="&lt;div&gt;&lt;span style=&quot;text-align: center; background-color: initial;&quot;&gt;&amp;nbsp; «Content»&lt;/span&gt;&lt;br&gt;&lt;/div&gt;&lt;div&gt;&lt;span style=&quot;background-color: initial;&quot;&gt;+&amp;nbsp; &amp;nbsp; ChargePointCertificate: X509CertificateDigestType [0..1]&lt;/span&gt;&lt;/div&gt;&lt;div&gt;+&amp;nbsp; &amp;nbsp; CentralServerCertificate: X509CertificateDigestType [0..1]&lt;span style=&quot;background-color: initial;&quot;&gt;&lt;br&gt;&lt;/span&gt;&lt;/div&gt;" style="text;html=1;strokeColor=none;fillColor=#e9fea7;align=left;verticalAlign=top;spacingLeft=4;spacingRight=4;overflow=hidden;rotatable=0;points=[[0,0.5],[1,0.5]];portConstraint=eastwest;fontSize=12;" vertex="1" parent="lwHhPLdUFV76qlDTj5FU-6">
          <mxGeometry y="40" width="340" height="60" as="geometry" />
        </mxCell>
        <mxCell id="lwHhPLdUFV76qlDTj5FU-9" value="&lt;div style=&quot;line-height: 14.4px;&quot;&gt;&lt;div style=&quot;text-align: right; line-height: 14.4px;&quot;&gt;&lt;span style=&quot;background-color: initial;&quot;&gt;&lt;i&gt;IdentifiedObject&lt;/i&gt;&lt;/span&gt;&lt;/div&gt;&lt;div style=&quot;line-height: 14.4px;&quot;&gt;&lt;span style=&quot;background-color: initial; text-align: right;&quot;&gt;&lt;br&gt;&lt;/span&gt;&lt;/div&gt;«&lt;span style=&quot;background-color: initial;&quot;&gt;BusinessComponent&lt;/span&gt;»&lt;br&gt;&lt;b&gt;Components::FirmwareType&lt;/b&gt;&lt;/div&gt;" style="swimlane;fontStyle=0;align=center;verticalAlign=top;childLayout=stackLayout;horizontal=1;startSize=70;horizontalStack=0;resizeParent=1;resizeParentMax=0;resizeLast=0;collapsible=0;marginBottom=0;html=1;fillColor=#e9fea7;shadow=1;fontSize=12;" vertex="1" parent="1">
          <mxGeometry x="20" y="625" width="260" height="200" as="geometry" />
        </mxCell>
        <mxCell id="lwHhPLdUFV76qlDTj5FU-10" value="&lt;div&gt;&lt;span style=&quot;text-align: center; background-color: initial;&quot;&gt;&amp;nbsp; «Content»&lt;/span&gt;&lt;br&gt;&lt;/div&gt;&lt;div&gt;&lt;span style=&quot;background-color: initial;&quot;&gt;+&amp;nbsp; &amp;nbsp; Version: VersionType [0..1]&lt;/span&gt;&lt;/div&gt;&lt;div&gt;+&amp;nbsp; &amp;nbsp; Status: FirmwareStatusEnumType [0..1]&lt;span style=&quot;background-color: initial;&quot;&gt;&lt;br&gt;&lt;/span&gt;&lt;/div&gt;&lt;div&gt;+&amp;nbsp; &amp;nbsp; Location: URIType [0..1]&lt;br&gt;&lt;/div&gt;&lt;div&gt;+&amp;nbsp; &amp;nbsp; RetrieveDateTime: DateTimeType [0..1]&lt;br&gt;&lt;/div&gt;&lt;div&gt;+&amp;nbsp; &amp;nbsp; InstallDateTime: DateTimeType [0..1]&lt;br&gt;&lt;/div&gt;&lt;div&gt;+&amp;nbsp; &amp;nbsp; Signature: Base64String800Type [0..1]&lt;br&gt;&lt;/div&gt;&lt;div&gt;+&amp;nbsp; &amp;nbsp; ServiceURL: URIType [0..1]&lt;br&gt;&lt;/div&gt;" style="text;html=1;strokeColor=none;fillColor=#e9fea7;align=left;verticalAlign=top;spacingLeft=4;spacingRight=4;overflow=hidden;rotatable=0;points=[[0,0.5],[1,0.5]];portConstraint=eastwest;fontSize=12;" vertex="1" parent="lwHhPLdUFV76qlDTj5FU-9">
          <mxGeometry y="70" width="260" height="130" as="geometry" />
        </mxCell>
        <mxCell id="lwHhPLdUFV76qlDTj5FU-11" value="&lt;div style=&quot;line-height: 14.4px;&quot;&gt;&lt;div style=&quot;text-align: right; line-height: 14.4px;&quot;&gt;&lt;i&gt;DeviceType&lt;/i&gt;&lt;/div&gt;&lt;div style=&quot;line-height: 14.4px;&quot;&gt;&lt;br&gt;&lt;/div&gt;«&lt;span style=&quot;background-color: initial;&quot;&gt;BusinessComponent&lt;/span&gt;»&lt;br&gt;&lt;b&gt;RootModel::ChargingStationType&lt;/b&gt;&lt;/div&gt;" style="swimlane;fontStyle=0;align=center;verticalAlign=top;childLayout=stackLayout;horizontal=1;startSize=70;horizontalStack=0;resizeParent=1;resizeParentMax=0;resizeLast=0;collapsible=0;marginBottom=0;html=1;fillColor=#e9fea7;shadow=1;fontSize=12;" vertex="1" parent="1">
          <mxGeometry x="600" y="30" width="310" height="140" as="geometry" />
        </mxCell>
        <mxCell id="lwHhPLdUFV76qlDTj5FU-12" value="&lt;div&gt;&lt;span style=&quot;text-align: center; background-color: initial;&quot;&gt;&amp;nbsp; «deprecated, Content»&lt;/span&gt;&lt;br&gt;&lt;/div&gt;&lt;div&gt;&lt;span style=&quot;background-color: initial;&quot;&gt;+&amp;nbsp; &amp;nbsp; ChargeBoxSerialNumber: SerialNumberType [0..1]&lt;/span&gt;&lt;/div&gt;&lt;div&gt;&lt;span style=&quot;text-align: center;&quot;&gt;&amp;nbsp; «Content»&lt;/span&gt;&lt;span style=&quot;background-color: initial;&quot;&gt;&lt;br&gt;&lt;/span&gt;&lt;/div&gt;&lt;div&gt;+&amp;nbsp; &amp;nbsp; EVSECount: CounterType [0..1]&lt;span style=&quot;background-color: initial;&quot;&gt;&lt;br&gt;&lt;/span&gt;&lt;/div&gt;" style="text;html=1;strokeColor=none;fillColor=#e9fea7;align=left;verticalAlign=top;spacingLeft=4;spacingRight=4;overflow=hidden;rotatable=0;points=[[0,0.5],[1,0.5]];portConstraint=eastwest;fontSize=12;" vertex="1" parent="lwHhPLdUFV76qlDTj5FU-11">
          <mxGeometry y="70" width="310" height="70" as="geometry" />
        </mxCell>
        <mxCell id="lwHhPLdUFV76qlDTj5FU-13" value="&lt;div style=&quot;line-height: 14.4px;&quot;&gt;&lt;div style=&quot;text-align: right; line-height: 14.4px;&quot;&gt;&lt;span style=&quot;background-color: initial;&quot;&gt;&lt;i&gt;IdentifiedObject&lt;/i&gt;&lt;/span&gt;&lt;/div&gt;&lt;div style=&quot;line-height: 14.4px;&quot;&gt;&lt;span style=&quot;background-color: initial; text-align: right;&quot;&gt;&lt;br&gt;&lt;/span&gt;&lt;/div&gt;«&lt;span style=&quot;background-color: initial;&quot;&gt;BusinessComponent&lt;/span&gt;»&lt;br&gt;&lt;b&gt;Components::LogType&lt;/b&gt;&lt;/div&gt;" style="swimlane;fontStyle=0;align=center;verticalAlign=top;childLayout=stackLayout;horizontal=1;startSize=70;horizontalStack=0;resizeParent=1;resizeParentMax=0;resizeLast=0;collapsible=0;marginBottom=0;html=1;fillColor=#e9fea7;shadow=1;fontSize=12;" vertex="1" parent="1">
          <mxGeometry x="1020" y="50" width="260" height="180" as="geometry" />
        </mxCell>
        <mxCell id="lwHhPLdUFV76qlDTj5FU-14" value="&lt;div&gt;&lt;span style=&quot;text-align: center; background-color: initial;&quot;&gt;&amp;nbsp; «Content»&lt;/span&gt;&lt;br&gt;&lt;/div&gt;&lt;div&gt;&lt;span style=&quot;background-color: initial;&quot;&gt;+&amp;nbsp; &amp;nbsp; Filename: FilenameType [0..1]&lt;/span&gt;&lt;/div&gt;&lt;div&gt;+&amp;nbsp; &amp;nbsp; RemoteLocation: URIType [0..1]&lt;span style=&quot;background-color: initial;&quot;&gt;&lt;br&gt;&lt;/span&gt;&lt;/div&gt;&lt;div&gt;+&amp;nbsp; &amp;nbsp; LogStartedDateTime: DateTimeType [0..1]&lt;br&gt;&lt;/div&gt;&lt;div&gt;+&amp;nbsp; &amp;nbsp; LogStoppedDateTime: DateTimeType&lt;br&gt;&lt;/div&gt;&lt;div&gt;+&amp;nbsp; &amp;nbsp; OldestTimestamp: DateTimeType [0..1]&lt;br&gt;&lt;/div&gt;&lt;div&gt;+&amp;nbsp; &amp;nbsp; LatestTimestamp: DateTimeType [0..1]&lt;br&gt;&lt;/div&gt;" style="text;html=1;strokeColor=none;fillColor=#e9fea7;align=left;verticalAlign=top;spacingLeft=4;spacingRight=4;overflow=hidden;rotatable=0;points=[[0,0.5],[1,0.5]];portConstraint=eastwest;fontSize=12;" vertex="1" parent="lwHhPLdUFV76qlDTj5FU-13">
          <mxGeometry y="70" width="260" height="110" as="geometry" />
        </mxCell>
        <mxCell id="lwHhPLdUFV76qlDTj5FU-15" value="&lt;div style=&quot;line-height: 14.4px;&quot;&gt;&lt;div style=&quot;line-height: 14.4px;&quot;&gt;&lt;span style=&quot;background-color: initial;&quot;&gt;«&lt;/span&gt;&lt;span style=&quot;background-color: initial;&quot;&gt;BusinessComponent&lt;/span&gt;&lt;span style=&quot;background-color: initial;&quot;&gt;»&lt;/span&gt;&lt;br&gt;&lt;/div&gt;&lt;b&gt;CertificateHierarchyType&lt;/b&gt;&lt;/div&gt;" style="swimlane;fontStyle=0;align=center;verticalAlign=top;childLayout=stackLayout;horizontal=1;startSize=40;horizontalStack=0;resizeParent=1;resizeParentMax=0;resizeLast=0;collapsible=0;marginBottom=0;html=1;fillColor=#e9fea7;shadow=1;fontSize=12;" vertex="1" parent="1">
          <mxGeometry x="670" y="300" width="260" height="100" as="geometry" />
        </mxCell>
        <mxCell id="lwHhPLdUFV76qlDTj5FU-16" value="&lt;div&gt;&lt;span style=&quot;text-align: center; background-color: initial;&quot;&gt;&amp;nbsp; «Content»&lt;/span&gt;&lt;br&gt;&lt;/div&gt;&lt;div&gt;&lt;span style=&quot;background-color: initial;&quot;&gt;+&amp;nbsp; &amp;nbsp; Type: CertificateHierarchyCodeType [0..1]&lt;/span&gt;&lt;/div&gt;" style="text;html=1;strokeColor=none;fillColor=#e9fea7;align=left;verticalAlign=top;spacingLeft=4;spacingRight=4;overflow=hidden;rotatable=0;points=[[0,0.5],[1,0.5]];portConstraint=eastwest;fontSize=12;" vertex="1" parent="lwHhPLdUFV76qlDTj5FU-15">
          <mxGeometry y="40" width="260" height="60" as="geometry" />
        </mxCell>
        <mxCell id="lwHhPLdUFV76qlDTj5FU-50" style="rounded=0;orthogonalLoop=1;jettySize=auto;html=1;exitX=-0.002;exitY=0.223;exitDx=0;exitDy=0;entryX=1;entryY=0.75;entryDx=0;entryDy=0;exitPerimeter=0;endArrow=diamondThin;endFill=0;endSize=15;" edge="1" parent="1" source="lwHhPLdUFV76qlDTj5FU-18" target="lwHhPLdUFV76qlDTj5FU-1">
          <mxGeometry relative="1" as="geometry" />
        </mxCell>
        <mxCell id="lwHhPLdUFV76qlDTj5FU-51" value="+CentralServerCertificate" style="edgeLabel;html=1;align=center;verticalAlign=middle;resizable=0;points=[];" vertex="1" connectable="0" parent="lwHhPLdUFV76qlDTj5FU-50">
          <mxGeometry x="-0.5" y="1" relative="1" as="geometry">
            <mxPoint x="2" y="-10" as="offset" />
          </mxGeometry>
        </mxCell>
        <mxCell id="lwHhPLdUFV76qlDTj5FU-52" value="0..1" style="edgeLabel;html=1;align=center;verticalAlign=middle;resizable=0;points=[];" vertex="1" connectable="0" parent="lwHhPLdUFV76qlDTj5FU-50">
          <mxGeometry x="-0.8647" y="1" relative="1" as="geometry">
            <mxPoint x="5" y="7" as="offset" />
          </mxGeometry>
        </mxCell>
        <mxCell id="lwHhPLdUFV76qlDTj5FU-17" value="&lt;div style=&quot;line-height: 14.4px;&quot;&gt;&lt;div style=&quot;text-align: right; line-height: 14.4px;&quot;&gt;&lt;span style=&quot;background-color: initial;&quot;&gt;&lt;i&gt;IdentifiedObject&lt;/i&gt;&lt;/span&gt;&lt;/div&gt;&lt;div style=&quot;line-height: 14.4px;&quot;&gt;&lt;span style=&quot;background-color: initial; text-align: right;&quot;&gt;&lt;br&gt;&lt;/span&gt;&lt;/div&gt;«&lt;span style=&quot;background-color: initial;&quot;&gt;BusinessComponent&lt;/span&gt;»&lt;br&gt;&lt;b&gt;CertificateChainType&lt;/b&gt;&lt;/div&gt;" style="swimlane;fontStyle=0;align=center;verticalAlign=top;childLayout=stackLayout;horizontal=1;startSize=70;horizontalStack=0;resizeParent=1;resizeParentMax=0;resizeLast=0;collapsible=0;marginBottom=0;html=1;fillColor=#e9fea7;shadow=1;fontSize=12;" vertex="1" parent="1">
          <mxGeometry x="550" y="480" width="240" height="240" as="geometry" />
        </mxCell>
        <mxCell id="lwHhPLdUFV76qlDTj5FU-18" value="&lt;div&gt;&lt;span style=&quot;text-align: center; background-color: initial;&quot;&gt;&amp;nbsp; «Content»&lt;/span&gt;&lt;br&gt;&lt;/div&gt;&lt;div&gt;&lt;span style=&quot;background-color: initial;&quot;&gt;+&amp;nbsp; &amp;nbsp; Certificate: Base64String800Type [0..1]&lt;/span&gt;&lt;/div&gt;&lt;div&gt;+&amp;nbsp; &amp;nbsp; CertificateSerial: CI20TextType [0..1]&lt;span style=&quot;background-color: initial;&quot;&gt;&lt;br&gt;&lt;/span&gt;&lt;/div&gt;&lt;div&gt;+&amp;nbsp; &amp;nbsp; ExpiryDate: DateType [0..1]&lt;br&gt;&lt;/div&gt;" style="text;html=1;strokeColor=none;fillColor=#e9fea7;align=left;verticalAlign=top;spacingLeft=4;spacingRight=4;overflow=hidden;rotatable=0;points=[[0,0.5],[1,0.5]];portConstraint=eastwest;fontSize=12;" vertex="1" parent="lwHhPLdUFV76qlDTj5FU-17">
          <mxGeometry y="70" width="240" height="170" as="geometry" />
        </mxCell>
        <mxCell id="lwHhPLdUFV76qlDTj5FU-57" style="edgeStyle=orthogonalEdgeStyle;rounded=1;orthogonalLoop=1;jettySize=auto;html=1;exitX=0.376;exitY=1.001;exitDx=0;exitDy=0;entryX=-0.003;entryY=0.834;entryDx=0;entryDy=0;entryPerimeter=0;exitPerimeter=0;curved=0;endArrow=diamondThin;endFill=0;endSize=15;" edge="1" parent="lwHhPLdUFV76qlDTj5FU-17" source="lwHhPLdUFV76qlDTj5FU-18" target="lwHhPLdUFV76qlDTj5FU-18">
          <mxGeometry relative="1" as="geometry">
            <Array as="points">
              <mxPoint x="90" y="280" />
              <mxPoint x="-50" y="280" />
              <mxPoint x="-50" y="212" />
            </Array>
          </mxGeometry>
        </mxCell>
        <mxCell id="lwHhPLdUFV76qlDTj5FU-58" value="+ChildCertificate" style="edgeLabel;html=1;align=center;verticalAlign=middle;resizable=0;points=[];" vertex="1" connectable="0" parent="lwHhPLdUFV76qlDTj5FU-57">
          <mxGeometry x="-0.9328" y="-3" relative="1" as="geometry">
            <mxPoint x="-41" as="offset" />
          </mxGeometry>
        </mxCell>
        <mxCell id="lwHhPLdUFV76qlDTj5FU-59" value="0..*" style="edgeLabel;html=1;align=center;verticalAlign=middle;resizable=0;points=[];" vertex="1" connectable="0" parent="lwHhPLdUFV76qlDTj5FU-57">
          <mxGeometry x="-0.9216" y="2" relative="1" as="geometry">
            <mxPoint x="8" y="-1" as="offset" />
          </mxGeometry>
        </mxCell>
        <mxCell id="lwHhPLdUFV76qlDTj5FU-61" style="edgeStyle=orthogonalEdgeStyle;rounded=1;orthogonalLoop=1;jettySize=auto;html=1;exitX=1.004;exitY=0.753;exitDx=0;exitDy=0;exitPerimeter=0;entryX=0.873;entryY=1;entryDx=0;entryDy=0;entryPerimeter=0;curved=0;endArrow=diamondThin;endFill=0;endSize=15;" edge="1" parent="lwHhPLdUFV76qlDTj5FU-17" source="lwHhPLdUFV76qlDTj5FU-18" target="lwHhPLdUFV76qlDTj5FU-18">
          <mxGeometry relative="1" as="geometry">
            <mxPoint x="210" y="240" as="targetPoint" />
            <Array as="points">
              <mxPoint x="320" y="198" />
              <mxPoint x="320" y="280" />
              <mxPoint x="210" y="280" />
              <mxPoint x="210" y="240" />
            </Array>
          </mxGeometry>
        </mxCell>
        <mxCell id="lwHhPLdUFV76qlDTj5FU-62" value="+ParentCertificate" style="edgeLabel;html=1;align=center;verticalAlign=middle;resizable=0;points=[];" vertex="1" connectable="0" parent="lwHhPLdUFV76qlDTj5FU-61">
          <mxGeometry x="-0.9099" y="2" relative="1" as="geometry">
            <mxPoint x="31" y="-7" as="offset" />
          </mxGeometry>
        </mxCell>
        <mxCell id="lwHhPLdUFV76qlDTj5FU-63" value="0..1" style="edgeLabel;html=1;align=center;verticalAlign=middle;resizable=0;points=[];" vertex="1" connectable="0" parent="lwHhPLdUFV76qlDTj5FU-61">
          <mxGeometry x="-0.9612" y="-1" relative="1" as="geometry">
            <mxPoint x="5" y="8" as="offset" />
          </mxGeometry>
        </mxCell>
        <mxCell id="lwHhPLdUFV76qlDTj5FU-19" value="&lt;div style=&quot;line-height: 14.4px;&quot;&gt;&lt;div style=&quot;line-height: 14.4px;&quot;&gt;&lt;span style=&quot;background-color: initial;&quot;&gt;«&lt;/span&gt;&lt;span style=&quot;background-color: initial;&quot;&gt;BusinessComponent&lt;/span&gt;&lt;span style=&quot;background-color: initial;&quot;&gt;»&lt;/span&gt;&lt;br&gt;&lt;/div&gt;&lt;b&gt;X509IssuerSerialType&lt;/b&gt;&lt;/div&gt;" style="swimlane;fontStyle=0;align=center;verticalAlign=top;childLayout=stackLayout;horizontal=1;startSize=40;horizontalStack=0;resizeParent=1;resizeParentMax=0;resizeLast=0;collapsible=0;marginBottom=0;html=1;fillColor=#e9fea7;shadow=1;fontSize=12;" vertex="1" parent="1">
          <mxGeometry x="920" y="530" width="270" height="100" as="geometry" />
        </mxCell>
        <mxCell id="lwHhPLdUFV76qlDTj5FU-20" value="&lt;div&gt;&lt;span style=&quot;text-align: center; background-color: initial;&quot;&gt;&amp;nbsp; «Content»&lt;/span&gt;&lt;br&gt;&lt;/div&gt;&lt;div&gt;&lt;span style=&quot;background-color: initial;&quot;&gt;+&amp;nbsp; &amp;nbsp; X509IssuerName: IssuerIdentifierType [0..1]&lt;/span&gt;&lt;/div&gt;&lt;div&gt;+&amp;nbsp; &amp;nbsp; X509SerialNumber: IntegerType [0..1]&lt;span style=&quot;background-color: initial;&quot;&gt;&lt;br&gt;&lt;/span&gt;&lt;/div&gt;" style="text;html=1;strokeColor=none;fillColor=#e9fea7;align=left;verticalAlign=top;spacingLeft=4;spacingRight=4;overflow=hidden;rotatable=0;points=[[0,0.5],[1,0.5]];portConstraint=eastwest;fontSize=12;" vertex="1" parent="lwHhPLdUFV76qlDTj5FU-19">
          <mxGeometry y="40" width="270" height="60" as="geometry" />
        </mxCell>
        <mxCell id="lwHhPLdUFV76qlDTj5FU-30" style="edgeStyle=orthogonalEdgeStyle;rounded=1;orthogonalLoop=1;jettySize=auto;html=1;exitX=0.25;exitY=1;exitDx=0;exitDy=0;entryX=1.006;entryY=0.789;entryDx=0;entryDy=0;entryPerimeter=0;endArrow=none;endFill=0;curved=0;" edge="1" parent="1" source="lwHhPLdUFV76qlDTj5FU-11" target="lwHhPLdUFV76qlDTj5FU-3">
          <mxGeometry relative="1" as="geometry" />
        </mxCell>
        <mxCell id="lwHhPLdUFV76qlDTj5FU-31" value="+SecurityProfile" style="edgeLabel;html=1;align=center;verticalAlign=middle;resizable=0;points=[];" vertex="1" connectable="0" parent="lwHhPLdUFV76qlDTj5FU-30">
          <mxGeometry x="0.8736" y="-2" relative="1" as="geometry">
            <mxPoint x="11" y="-8" as="offset" />
          </mxGeometry>
        </mxCell>
        <mxCell id="lwHhPLdUFV76qlDTj5FU-32" value="0..1" style="edgeLabel;html=1;align=center;verticalAlign=middle;resizable=0;points=[];" vertex="1" connectable="0" parent="lwHhPLdUFV76qlDTj5FU-30">
          <mxGeometry x="0.942" y="3" relative="1" as="geometry">
            <mxPoint x="-2" y="6" as="offset" />
          </mxGeometry>
        </mxCell>
        <mxCell id="lwHhPLdUFV76qlDTj5FU-33" value="+ChargePoint" style="edgeLabel;html=1;align=center;verticalAlign=middle;resizable=0;points=[];" vertex="1" connectable="0" parent="lwHhPLdUFV76qlDTj5FU-30">
          <mxGeometry x="-0.9648" y="-2" relative="1" as="geometry">
            <mxPoint x="-35" y="2" as="offset" />
          </mxGeometry>
        </mxCell>
        <mxCell id="lwHhPLdUFV76qlDTj5FU-34" value="0..1" style="edgeLabel;html=1;align=center;verticalAlign=middle;resizable=0;points=[];" vertex="1" connectable="0" parent="lwHhPLdUFV76qlDTj5FU-30">
          <mxGeometry x="-0.9549" y="1" relative="1" as="geometry">
            <mxPoint x="11" as="offset" />
          </mxGeometry>
        </mxCell>
        <mxCell id="lwHhPLdUFV76qlDTj5FU-35" style="rounded=0;orthogonalLoop=1;jettySize=auto;html=1;exitX=0.25;exitY=0;exitDx=0;exitDy=0;entryX=0.436;entryY=1.002;entryDx=0;entryDy=0;entryPerimeter=0;endArrow=diamondThin;endFill=1;endSize=15;" edge="1" parent="1" source="lwHhPLdUFV76qlDTj5FU-15" target="lwHhPLdUFV76qlDTj5FU-12">
          <mxGeometry relative="1" as="geometry" />
        </mxCell>
        <mxCell id="lwHhPLdUFV76qlDTj5FU-36" value="+ManufactuuerHierarchy" style="edgeLabel;html=1;align=center;verticalAlign=middle;resizable=0;points=[];" vertex="1" connectable="0" parent="lwHhPLdUFV76qlDTj5FU-35">
          <mxGeometry x="-0.8306" y="1" relative="1" as="geometry">
            <mxPoint x="-62" as="offset" />
          </mxGeometry>
        </mxCell>
        <mxCell id="lwHhPLdUFV76qlDTj5FU-37" value="0..1" style="edgeLabel;html=1;align=center;verticalAlign=middle;resizable=0;points=[];" vertex="1" connectable="0" parent="lwHhPLdUFV76qlDTj5FU-35">
          <mxGeometry x="-0.857" relative="1" as="geometry">
            <mxPoint x="11" y="-1" as="offset" />
          </mxGeometry>
        </mxCell>
        <mxCell id="lwHhPLdUFV76qlDTj5FU-38" style="edgeStyle=orthogonalEdgeStyle;rounded=0;orthogonalLoop=1;jettySize=auto;html=1;exitX=0.75;exitY=0;exitDx=0;exitDy=0;entryX=0.855;entryY=1.002;entryDx=0;entryDy=0;entryPerimeter=0;endSize=15;endArrow=diamondThin;endFill=1;" edge="1" parent="1" source="lwHhPLdUFV76qlDTj5FU-15" target="lwHhPLdUFV76qlDTj5FU-12">
          <mxGeometry relative="1" as="geometry" />
        </mxCell>
        <mxCell id="lwHhPLdUFV76qlDTj5FU-39" value="+ChargePointOperatorHierarchy" style="edgeLabel;html=1;align=center;verticalAlign=middle;resizable=0;points=[];" vertex="1" connectable="0" parent="lwHhPLdUFV76qlDTj5FU-38">
          <mxGeometry x="-0.8307" y="1" relative="1" as="geometry">
            <mxPoint x="26" y="-18" as="offset" />
          </mxGeometry>
        </mxCell>
        <mxCell id="lwHhPLdUFV76qlDTj5FU-40" value="0..1" style="edgeLabel;html=1;align=center;verticalAlign=middle;resizable=0;points=[];" vertex="1" connectable="0" parent="lwHhPLdUFV76qlDTj5FU-38">
          <mxGeometry x="-0.8307" y="-1" relative="1" as="geometry">
            <mxPoint x="11" y="1" as="offset" />
          </mxGeometry>
        </mxCell>
        <mxCell id="lwHhPLdUFV76qlDTj5FU-41" style="rounded=0;orthogonalLoop=1;jettySize=auto;html=1;exitX=0;exitY=0.5;exitDx=0;exitDy=0;entryX=1.01;entryY=0.578;entryDx=0;entryDy=0;entryPerimeter=0;endArrow=diamondThin;endFill=1;endSize=15;" edge="1" parent="1" source="lwHhPLdUFV76qlDTj5FU-13" target="lwHhPLdUFV76qlDTj5FU-12">
          <mxGeometry relative="1" as="geometry" />
        </mxCell>
        <mxCell id="lwHhPLdUFV76qlDTj5FU-42" value="+SecurityLog" style="edgeLabel;html=1;align=center;verticalAlign=middle;resizable=0;points=[];" vertex="1" connectable="0" parent="lwHhPLdUFV76qlDTj5FU-41">
          <mxGeometry x="-0.42" relative="1" as="geometry">
            <mxPoint x="-5" y="-10" as="offset" />
          </mxGeometry>
        </mxCell>
        <mxCell id="lwHhPLdUFV76qlDTj5FU-43" value="0..1" style="edgeLabel;html=1;align=center;verticalAlign=middle;resizable=0;points=[];" vertex="1" connectable="0" parent="lwHhPLdUFV76qlDTj5FU-41">
          <mxGeometry x="-0.73" y="1" relative="1" as="geometry">
            <mxPoint y="8" as="offset" />
          </mxGeometry>
        </mxCell>
        <mxCell id="lwHhPLdUFV76qlDTj5FU-44" style="edgeStyle=orthogonalEdgeStyle;rounded=1;orthogonalLoop=1;jettySize=auto;html=1;exitX=-0.002;exitY=0.097;exitDx=0;exitDy=0;entryX=0.332;entryY=0.998;entryDx=0;entryDy=0;entryPerimeter=0;exitPerimeter=0;endArrow=diamondThin;endFill=0;endSize=15;curved=0;" edge="1" parent="1" source="lwHhPLdUFV76qlDTj5FU-17" target="lwHhPLdUFV76qlDTj5FU-7">
          <mxGeometry relative="1" as="geometry" />
        </mxCell>
        <mxCell id="lwHhPLdUFV76qlDTj5FU-45" value="+CentralServerCertificate" style="edgeLabel;html=1;align=center;verticalAlign=middle;resizable=0;points=[];" vertex="1" connectable="0" parent="lwHhPLdUFV76qlDTj5FU-44">
          <mxGeometry x="-0.657" relative="1" as="geometry">
            <mxPoint x="-24" y="-11" as="offset" />
          </mxGeometry>
        </mxCell>
        <mxCell id="lwHhPLdUFV76qlDTj5FU-46" value="0..1" style="edgeLabel;html=1;align=center;verticalAlign=middle;resizable=0;points=[];" vertex="1" connectable="0" parent="lwHhPLdUFV76qlDTj5FU-44">
          <mxGeometry x="-0.8496" relative="1" as="geometry">
            <mxPoint x="5" y="9" as="offset" />
          </mxGeometry>
        </mxCell>
        <mxCell id="lwHhPLdUFV76qlDTj5FU-47" style="edgeStyle=orthogonalEdgeStyle;rounded=1;orthogonalLoop=1;jettySize=auto;html=1;exitX=0;exitY=0.25;exitDx=0;exitDy=0;entryX=0.265;entryY=1.007;entryDx=0;entryDy=0;entryPerimeter=0;endSize=15;curved=0;endArrow=diamondThin;endFill=0;" edge="1" parent="1" source="lwHhPLdUFV76qlDTj5FU-17" target="lwHhPLdUFV76qlDTj5FU-7">
          <mxGeometry relative="1" as="geometry" />
        </mxCell>
        <mxCell id="lwHhPLdUFV76qlDTj5FU-48" value="+ChargePointCertificate" style="edgeLabel;html=1;align=center;verticalAlign=middle;resizable=0;points=[];" vertex="1" connectable="0" parent="lwHhPLdUFV76qlDTj5FU-47">
          <mxGeometry x="-0.5507" y="-1" relative="1" as="geometry">
            <mxPoint x="6" y="-8" as="offset" />
          </mxGeometry>
        </mxCell>
        <mxCell id="lwHhPLdUFV76qlDTj5FU-49" value="0..1" style="edgeLabel;html=1;align=center;verticalAlign=middle;resizable=0;points=[];" vertex="1" connectable="0" parent="lwHhPLdUFV76qlDTj5FU-47">
          <mxGeometry x="-0.8674" relative="1" as="geometry">
            <mxPoint x="7" y="8" as="offset" />
          </mxGeometry>
        </mxCell>
        <mxCell id="lwHhPLdUFV76qlDTj5FU-53" style="edgeStyle=orthogonalEdgeStyle;rounded=1;orthogonalLoop=1;jettySize=auto;html=1;exitX=0;exitY=0.5;exitDx=0;exitDy=0;entryX=1.004;entryY=0.194;entryDx=0;entryDy=0;entryPerimeter=0;endArrow=diamondThin;endFill=0;endSize=15;curved=0;" edge="1" parent="1" source="lwHhPLdUFV76qlDTj5FU-18" target="lwHhPLdUFV76qlDTj5FU-10">
          <mxGeometry relative="1" as="geometry">
            <Array as="points">
              <mxPoint x="380" y="635" />
              <mxPoint x="380" y="720" />
            </Array>
          </mxGeometry>
        </mxCell>
        <mxCell id="lwHhPLdUFV76qlDTj5FU-54" value="+FirmwareSigningCertificate" style="edgeLabel;html=1;align=center;verticalAlign=middle;resizable=0;points=[];" vertex="1" connectable="0" parent="lwHhPLdUFV76qlDTj5FU-53">
          <mxGeometry x="-0.5821" y="-2" relative="1" as="geometry">
            <mxPoint x="1" y="-7" as="offset" />
          </mxGeometry>
        </mxCell>
        <mxCell id="lwHhPLdUFV76qlDTj5FU-56" value="0..1" style="edgeLabel;html=1;align=center;verticalAlign=middle;resizable=0;points=[];" vertex="1" connectable="0" parent="lwHhPLdUFV76qlDTj5FU-53">
          <mxGeometry x="-0.8833" y="3" relative="1" as="geometry">
            <mxPoint x="7" y="6" as="offset" />
          </mxGeometry>
        </mxCell>
        <mxCell id="lwHhPLdUFV76qlDTj5FU-60" style="edgeStyle=orthogonalEdgeStyle;rounded=0;orthogonalLoop=1;jettySize=auto;html=1;entryX=1;entryY=0.176;entryDx=0;entryDy=0;entryPerimeter=0;endSize=15;endArrow=diamondThin;endFill=0;" edge="1" parent="1" source="lwHhPLdUFV76qlDTj5FU-19" target="lwHhPLdUFV76qlDTj5FU-18">
          <mxGeometry relative="1" as="geometry">
            <mxPoint x="810" y="580" as="targetPoint" />
          </mxGeometry>
        </mxCell>
        <mxCell id="lwHhPLdUFV76qlDTj5FU-64" value="+RootCertificate" style="edgeLabel;html=1;align=center;verticalAlign=middle;resizable=0;points=[];" vertex="1" connectable="0" parent="lwHhPLdUFV76qlDTj5FU-60">
          <mxGeometry x="-0.4181" relative="1" as="geometry">
            <mxPoint x="-2" y="-10" as="offset" />
          </mxGeometry>
        </mxCell>
        <mxCell id="lwHhPLdUFV76qlDTj5FU-65" value="0..1" style="edgeLabel;html=1;align=center;verticalAlign=middle;resizable=0;points=[];" vertex="1" connectable="0" parent="lwHhPLdUFV76qlDTj5FU-60">
          <mxGeometry x="-0.7782" y="2" relative="1" as="geometry">
            <mxPoint x="2" y="6" as="offset" />
          </mxGeometry>
        </mxCell>
        <mxCell id="lwHhPLdUFV76qlDTj5FU-66" style="edgeStyle=orthogonalEdgeStyle;rounded=1;orthogonalLoop=1;jettySize=auto;html=1;exitX=0.5;exitY=0;exitDx=0;exitDy=0;entryX=0.708;entryY=0.998;entryDx=0;entryDy=0;entryPerimeter=0;curved=0;endArrow=diamondThin;endFill=1;endSize=15;" edge="1" parent="1" source="lwHhPLdUFV76qlDTj5FU-19" target="lwHhPLdUFV76qlDTj5FU-16">
          <mxGeometry relative="1" as="geometry" />
        </mxCell>
        <mxCell id="lwHhPLdUFV76qlDTj5FU-67" value="+RootCertificate" style="edgeLabel;html=1;align=center;verticalAlign=middle;resizable=0;points=[];" vertex="1" connectable="0" parent="lwHhPLdUFV76qlDTj5FU-66">
          <mxGeometry x="-0.9353" y="1" relative="1" as="geometry">
            <mxPoint x="-41" as="offset" />
          </mxGeometry>
        </mxCell>
        <mxCell id="lwHhPLdUFV76qlDTj5FU-68" value="0..*" style="edgeLabel;html=1;align=center;verticalAlign=middle;resizable=0;points=[];" vertex="1" connectable="0" parent="lwHhPLdUFV76qlDTj5FU-66">
          <mxGeometry x="-0.9525" y="-1" relative="1" as="geometry">
            <mxPoint x="10" y="-3" as="offset" />
          </mxGeometry>
        </mxCell>
      </root>
    </mxGraphModel>
  </diagram>
</mxfile>
